{
  "source": "C:\\Users\\Peter\\Desktop\\stuff\\MIUN\\quantitative_research\\video_compression\\videos\\HEVC_CLASS_B\\ParkScene_1920x1080_24.y4m",
  "output": "C:\\Users\\Peter\\Desktop\\stuff\\MIUN\\quantitative_research\\video_compression\\compressed_videos\\HEVC_CLASS_B\\av1\\3\\ParkScene_1920x1080_24_av1.mkv",
  "codec": "av1",
  "ok": "Input #0, yuv4mpegpipe, from 'C:\\Users\\Peter\\Desktop\\stuff\\MIUN\\quantitative_research\\video_compression\\videos\\HEVC_CLASS_B\\ParkScene_1920x1080_24.y4m':\n  Duration: 00:00:10.00, start: 0.000000, bitrate: 597198 kb/s\n  Stream #0:0: Video: rawvideo (I420 / 0x30323449), yuv420p(progressive), 1920x1080, 24 fps, 24 tbr, 24 tbn\n[out#0/matroska @ 00000224d4318ec0] Codec AVOption b:a (set bitrate (in bits/s)) has not been used for any stream. The most likely reason is either wrong type (e.g. a video option with no video streams) or that it is a private option of some decoder which was not actually used for any stream.\nStream mapping:\n  Stream #0:0 -> #0:0 (rawvideo (native) -> av1 (libsvtav1))\nPress [q] to stop, [?] for help\nSvt[info]: -------------------------------------------\nSvt[info]: SVT [version]:\tSVT-AV1 Encoder Lib v3.1.0-19-g6ecfe8ec\nSvt[info]: SVT [build]  :\tGCC 15.2.0\t 64 bit\nSvt[info]: LIB Build date: Aug 17 2025 11:37:13\nSvt[info]: -------------------------------------------\n[libsvtav1 @ 00000224d431c080] Specified chroma sample location center is unsupported on the AV1 bit stream level. Usage of a container that allows passing this information - such as Matroska - is recommended.\nSvt[info]: Level of Parallelism: 5\nSvt[info]: Number of PPCS 93\nSvt[info]: [asm level on system : up to avx2]\nSvt[info]: [asm level selected : up to avx2]\nSvt[info]: -------------------------------------------\nSvt[info]: SVT [config]: main profile\ttier (auto)\tlevel (auto)\nSvt[info]: SVT [config]: width / height / fps numerator / fps denominator \t\t: 1920 / 1080 / 24 / 1\nSvt[info]: SVT [config]: bit-depth / color format \t\t\t\t\t: 8 / YUV420\nSvt[info]: SVT [config]: preset / tune / pred struct \t\t\t\t\t: 4 / PSNR / random access\nSvt[info]: SVT [config]: gop size / mini-gop size / key-frame type \t\t\t: 161 / 16 / key frame\nSvt[info]: SVT [config]: BRC mode / target bitrate (kbps)\t\t\t\t: VBR / 3000 \nSvt[info]: SVT [config]: AQ mode / Variance Boost \t\t\t\t\t: 2 / 0\nSvt[info]: SVT [config]: sharpness / luminance-based QP bias \t\t\t\t: 0 / 0\nSvt[info]: SVT [config]: QP scale compress strength \t\t\t\t\t: 0\nSvt[info]: -------------------------------------------\nOutput #0, matroska, to 'C:\\Users\\Peter\\Desktop\\stuff\\MIUN\\quantitative_research\\video_compression\\compressed_videos\\HEVC_CLASS_B\\av1\\3\\ParkScene_1920x1080_24_av1.mkv':\n  Metadata:\n    encoder         : Lavf62.3.100\n  Stream #0:0: Video: av1 (AV01 / 0x31305641), yuv420p(tv, progressive), 1920x1080, q=2-31, 3000 kb/s, 24 fps, 1k tbn\n    Metadata:\n      encoder         : Lavc62.11.100 libsvtav1\n    Side data:\n      cpb: bitrate max/min/avg: 0/0/3000000 buffer size: 3000000 vbv_delay: N/A\nframe=    0 fps=0.0 q=0.0 size=       0KiB time=N/A bitrate=N/A speed=N/A elapsed=0:00:04.86    \nframe=    0 fps=0.0 q=0.0 size=       0KiB time=N/A bitrate=N/A speed=N/A elapsed=0:00:05.38    \nframe=    0 fps=0.0 q=0.0 size=       0KiB time=N/A bitrate=N/A speed=N/A elapsed=0:00:05.92    \nframe=    0 fps=0.0 q=0.0 size=       0KiB time=N/A bitrate=N/A speed=N/A elapsed=0:00:06.53    \nframe=    0 fps=0.0 q=0.0 size=       0KiB time=N/A bitrate=N/A speed=N/A elapsed=0:00:07.06    \nframe=    0 fps=0.0 q=0.0 size=       0KiB time=N/A bitrate=N/A speed=N/A elapsed=0:00:07.57    \nframe=    0 fps=0.0 q=0.0 size=       0KiB time=N/A bitrate=N/A speed=N/A elapsed=0:00:08.09    \nframe=    0 fps=0.0 q=0.0 size=       0KiB time=N/A bitrate=N/A speed=N/A elapsed=0:00:08.62    \nframe=    0 fps=0.0 q=0.0 size=       0KiB time=N/A bitrate=N/A speed=N/A elapsed=0:00:09.15    \nframe=    0 fps=0.0 q=0.0 size=       0KiB time=N/A bitrate=N/A speed=N/A elapsed=0:00:09.67    \nframe=    0 fps=0.0 q=0.0 size=       0KiB time=N/A bitrate=N/A speed=N/A elapsed=0:00:10.22    \nframe=    0 fps=0.0 q=0.0 size=       0KiB time=N/A bitrate=N/A speed=N/A elapsed=0:00:10.79    \nframe=    0 fps=0.0 q=0.0 size=       0KiB time=N/A bitrate=N/A speed=N/A elapsed=0:00:11.32    \nframe=    0 fps=0.0 q=0.0 size=       0KiB time=N/A bitrate=N/A speed=N/A elapsed=0:00:11.83    \nframe=    0 fps=0.0 q=0.0 size=       0KiB time=N/A bitrate=N/A speed=N/A elapsed=0:00:12.36    \nframe=    0 fps=0.0 q=0.0 size=       0KiB time=N/A bitrate=N/A speed=N/A elapsed=0:00:12.94    \nframe=    0 fps=0.0 q=0.0 size=       0KiB time=N/A bitrate=N/A speed=N/A elapsed=0:00:13.50    \nframe=    0 fps=0.0 q=0.0 size=       0KiB time=N/A bitrate=N/A speed=N/A elapsed=0:00:14.09    \nframe=    0 fps=0.0 q=0.0 size=       0KiB time=N/A bitrate=N/A speed=N/A elapsed=0:00:14.61    \nframe=    0 fps=0.0 q=0.0 size=       0KiB time=N/A bitrate=N/A speed=N/A elapsed=0:00:15.19    \nframe=    0 fps=0.0 q=0.0 size=       0KiB time=N/A bitrate=N/A speed=N/A elapsed=0:00:15.71    \nframe=    0 fps=0.0 q=0.0 size=       0KiB time=N/A bitrate=N/A speed=N/A elapsed=0:00:16.25    \nframe=    1 fps=0.1 q=11.0 size=       1KiB time=00:00:00.00 bitrate=N/A speed=   0x elapsed=0:00:16.79    \nframe=    1 fps=0.1 q=11.0 size=       1KiB time=00:00:00.00 bitrate=N/A speed=   0x elapsed=0:00:17.32    \nframe=    1 fps=0.1 q=11.0 size=       1KiB time=00:00:00.00 bitrate=N/A speed=   0x elapsed=0:00:17.87    \nframe=    1 fps=0.1 q=11.0 size=       1KiB time=00:00:00.00 bitrate=N/A speed=   0x elapsed=0:00:18.43    \nframe=    1 fps=0.1 q=11.0 size=       1KiB time=00:00:00.00 bitrate=N/A speed=   0x elapsed=0:00:19.02    \nframe=    1 fps=0.1 q=11.0 size=       1KiB time=00:00:00.00 bitrate=N/A speed=   0x elapsed=0:00:19.58    \nframe=    1 fps=0.0 q=11.0 size=       1KiB time=00:00:00.00 bitrate=N/A speed=   0x elapsed=0:00:20.15    \nframe=    1 fps=0.0 q=11.0 size=       1KiB time=00:00:00.00 bitrate=N/A speed=   0x elapsed=0:00:20.71    \nframe=    1 fps=0.0 q=11.0 size=       1KiB time=00:00:00.00 bitrate=N/A speed=   0x elapsed=0:00:21.30    \nframe=    1 fps=0.0 q=11.0 size=       1KiB time=00:00:00.00 bitrate=N/A speed=   0x elapsed=0:00:21.90    \nframe=    1 fps=0.0 q=11.0 size=       1KiB time=00:00:00.00 bitrate=N/A speed=   0x elapsed=0:00:22.49    \nframe=    1 fps=0.0 q=11.0 size=       1KiB time=00:00:00.00 bitrate=N/A speed=   0x elapsed=0:00:23.03    \nframe=    1 fps=0.0 q=11.0 size=       1KiB time=00:00:00.00 bitrate=N/A speed=   0x elapsed=0:00:23.57    \nframe=    1 fps=0.0 q=11.0 size=       1KiB time=00:00:00.00 bitrate=N/A speed=   0x elapsed=0:00:24.12    \nframe=    1 fps=0.0 q=11.0 size=       1KiB time=00:00:00.00 bitrate=N/A speed=   0x elapsed=0:00:24.66    \nframe=    1 fps=0.0 q=11.0 size=       1KiB time=00:00:00.00 bitrate=N/A speed=   0x elapsed=0:00:25.27    \nframe=    1 fps=0.0 q=11.0 size=       1KiB time=00:00:00.00 bitrate=N/A speed=   0x elapsed=0:00:25.83    \nframe=    1 fps=0.0 q=11.0 size=       1KiB time=00:00:00.00 bitrate=N/A speed=   0x elapsed=0:00:26.40    \nframe=    1 fps=0.0 q=11.0 size=       1KiB time=00:00:00.00 bitrate=N/A speed=   0x elapsed=0:00:26.97    \nframe=    1 fps=0.0 q=11.0 size=       1KiB time=00:00:00.00 bitrate=N/A speed=   0x elapsed=0:00:27.58    \nframe=    2 fps=0.1 q=38.0 size=       1KiB time=00:00:00.04 bitrate= 107.9kbits/s speed=0.00148x elapsed=0:00:28.16    \nframe=    3 fps=0.1 q=35.0 size=       1KiB time=00:00:00.08 bitrate=  54.0kbits/s speed=0.0029x elapsed=0:00:28.74    \nframe=    4 fps=0.1 q=38.0 size=       1KiB time=00:00:00.08 bitrate=  54.0kbits/s speed=0.00284x elapsed=0:00:29.32    \nframe=    5 fps=0.2 q=33.0 size=       1KiB time=00:00:00.16 bitrate=  27.0kbits/s speed=0.00557x elapsed=0:00:29.92    \nframe=    6 fps=0.2 q=34.0 size=       1KiB time=00:00:00.16 bitrate=  27.0kbits/s speed=0.00545x elapsed=0:00:30.56    \nframe=    6 fps=0.2 q=34.0 size=       1KiB time=00:00:00.20 bitrate=  21.6kbits/s speed=0.0067x elapsed=0:00:31.10    \nframe=    6 fps=0.2 q=34.0 size=       1KiB time=00:00:00.20 bitrate=  21.6kbits/s speed=0.00657x elapsed=0:00:31.69    \nframe=    7 fps=0.2 q=34.0 size=       1KiB time=00:00:00.25 bitrate=  18.0kbits/s speed=0.00773x elapsed=0:00:32.32    \nframe=    7 fps=0.2 q=34.0 size=       1KiB time=00:00:00.25 bitrate=  18.0kbits/s speed=0.00761x elapsed=0:00:32.85    \nframe=    7 fps=0.2 q=34.0 size=       1KiB time=00:00:00.25 bitrate=  18.0kbits/s speed=0.00749x elapsed=0:00:33.39    \nframe=    8 fps=0.2 q=34.0 size=       1KiB time=00:00:00.29 bitrate=  15.4kbits/s speed=0.0086x elapsed=0:00:33.92    \nframe=   10 fps=0.3 q=33.0 size=       1KiB time=00:00:00.37 bitrate=  12.0kbits/s speed=0.0109x elapsed=0:00:34.47    \nframe=   11 fps=0.3 q=33.0 size=       1KiB time=00:00:00.41 bitrate=  10.8kbits/s speed=0.0119x elapsed=0:00:35.03    \nframe=   11 fps=0.3 q=33.0 size=       1KiB time=00:00:00.41 bitrate=  10.8kbits/s speed=0.0117x elapsed=0:00:35.61    \nframe=   13 fps=0.4 q=32.0 size=       1KiB time=00:00:00.50 bitrate=   9.0kbits/s speed=0.0138x elapsed=0:00:36.16    \nframe=   14 fps=0.4 q=31.0 size=       1KiB time=00:00:00.54 bitrate=   8.3kbits/s speed=0.0147x elapsed=0:00:36.77    \nframe=   16 fps=0.4 q=30.0 size=       1KiB time=00:00:00.62 bitrate=   7.2kbits/s speed=0.0167x elapsed=0:00:37.35    \nframe=   17 fps=0.4 q=17.0 size=       1KiB time=00:00:00.66 bitrate=   6.7kbits/s speed=0.0176x elapsed=0:00:37.90    \nframe=   18 fps=0.5 q=32.0 size=       1KiB time=00:00:00.70 bitrate=   6.3kbits/s speed=0.0184x elapsed=0:00:38.47    \nframe=   19 fps=0.5 q=34.0 size=       1KiB time=00:00:00.75 bitrate=   6.0kbits/s speed=0.0192x elapsed=0:00:39.03    \nframe=   20 fps=0.5 q=32.0 size=       1KiB time=00:00:00.79 bitrate=   5.7kbits/s speed=0.02x elapsed=0:00:39.60    \nframe=   22 fps=0.5 q=32.0 size=       1KiB time=00:00:00.87 bitrate=   5.1kbits/s speed=0.0218x elapsed=0:00:40.12    \nframe=   22 fps=0.5 q=32.0 size=       1KiB time=00:00:00.87 bitrate=   5.1kbits/s speed=0.0215x elapsed=0:00:40.65    \nframe=   23 fps=0.6 q=34.0 size=       1KiB time=00:00:00.91 bitrate=   4.9kbits/s speed=0.0223x elapsed=0:00:41.19    \nframe=   24 fps=0.6 q=32.0 size=       1KiB time=00:00:00.95 bitrate=   4.7kbits/s speed=0.023x elapsed=0:00:41.74    \nframe=   25 fps=0.6 q=30.0 size=       1KiB time=00:00:01.00 bitrate=   4.5kbits/s speed=0.0236x elapsed=0:00:42.29    \nframe=   25 fps=0.6 q=30.0 size=       1KiB time=00:00:01.00 bitrate=   4.5kbits/s speed=0.0233x elapsed=0:00:42.92    \nframe=   26 fps=0.6 q=32.0 size=       1KiB time=00:00:01.04 bitrate=   4.3kbits/s speed=0.0239x elapsed=0:00:43.49    \nframe=   26 fps=0.6 q=32.0 size=       1KiB time=00:00:01.04 bitrate=   4.3kbits/s speed=0.0237x elapsed=0:00:44.04    \nframe=   28 fps=0.6 q=32.0 size=       1KiB time=00:00:01.12 bitrate=   4.0kbits/s speed=0.0252x elapsed=0:00:44.55    \nframe=   29 fps=0.6 q=33.0 size=       1KiB time=00:00:01.16 bitrate=   3.9kbits/s speed=0.0259x elapsed=0:00:45.07    \nframe=   29 fps=0.6 q=33.0 size=       1KiB time=00:00:01.16 bitrate=   3.9kbits/s speed=0.0256x elapsed=0:00:45.59    \nframe=   31 fps=0.7 q=34.0 size=       1KiB time=00:00:01.25 bitrate=   3.6kbits/s speed=0.0271x elapsed=0:00:46.11    \nframe=   31 fps=0.7 q=34.0 size=       1KiB time=00:00:01.25 bitrate=   3.6kbits/s speed=0.0268x elapsed=0:00:46.67    \nframe=   32 fps=0.7 q=33.0 size=       1KiB time=00:00:01.29 bitrate=   3.5kbits/s speed=0.0274x elapsed=0:00:47.19    \nframe=   33 fps=0.7 q=17.0 size=       1KiB time=00:00:01.33 bitrate=   3.4kbits/s speed=0.0279x elapsed=0:00:47.79    \nframe=   34 fps=0.7 q=34.0 size=       1KiB time=00:00:01.37 bitrate=   3.3kbits/s speed=0.0284x elapsed=0:00:48.33    \nframe=   35 fps=0.7 q=34.0 size=       1KiB time=00:00:01.41 bitrate=   3.2kbits/s speed=0.0289x elapsed=0:00:48.93    \nframe=   35 fps=0.7 q=34.0 size=       1KiB time=00:00:01.41 bitrate=   3.2kbits/s speed=0.0286x elapsed=0:00:49.51    \nframe=   36 fps=0.7 q=34.0 size=       1KiB time=00:00:01.45 bitrate=   3.1kbits/s speed=0.0291x elapsed=0:00:50.11    \nframe=   37 fps=0.7 q=33.0 size=       1KiB time=00:00:01.50 bitrate=   3.0kbits/s speed=0.0296x elapsed=0:00:50.68    \nframe=   38 fps=0.7 q=33.0 size=       1KiB time=00:00:01.54 bitrate=   2.9kbits/s speed=0.0301x elapsed=0:00:51.20    \nframe=   38 fps=0.7 q=33.0 size=       1KiB time=00:00:01.54 bitrate=   2.9kbits/s speed=0.0297x elapsed=0:00:51.82    \nframe=   39 fps=0.7 q=33.0 size=       1KiB time=00:00:01.58 bitrate=   2.8kbits/s speed=0.0302x elapsed=0:00:52.38    \nframe=   40 fps=0.8 q=33.0 size=       1KiB time=00:00:01.62 bitrate=   2.8kbits/s speed=0.0307x elapsed=0:00:52.97    \nframe=   41 fps=0.8 q=30.0 size=       1KiB time=00:00:01.66 bitrate=   2.7kbits/s speed=0.0311x elapsed=0:00:53.58    \nframe=   42 fps=0.8 q=34.0 size=       1KiB time=00:00:01.70 bitrate=   2.6kbits/s speed=0.0315x elapsed=0:00:54.29    \nframe=   43 fps=0.8 q=33.0 size=       1KiB time=00:00:01.75 bitrate=   2.6kbits/s speed=0.0319x elapsed=0:00:54.88    \nframe=   44 fps=0.8 q=34.0 size=       1KiB time=00:00:01.79 bitrate=   2.5kbits/s speed=0.0323x elapsed=0:00:55.46    \nframe=   45 fps=0.8 q=33.0 size=       1KiB time=00:00:01.83 bitrate=   2.5kbits/s speed=0.0327x elapsed=0:00:56.04    \nframe=   45 fps=0.8 q=33.0 size=       1KiB time=00:00:01.83 bitrate=   2.5kbits/s speed=0.0324x elapsed=0:00:56.59    \nframe=   46 fps=0.8 q=34.0 size=       1KiB time=00:00:01.87 bitrate=   2.4kbits/s speed=0.0328x elapsed=0:00:57.15    \nframe=   48 fps=0.8 q=34.0 size=       1KiB time=00:00:01.95 bitrate=   2.3kbits/s speed=0.0339x elapsed=0:00:57.73    \nframe=   48 fps=0.8 q=34.0 size=       1KiB time=00:00:01.95 bitrate=   2.3kbits/s speed=0.0336x elapsed=0:00:58.30    \nframe=   49 fps=0.8 q=15.0 size=       1KiB time=00:00:02.00 bitrate=   2.2kbits/s speed=0.034x elapsed=0:00:58.90    \nframe=   50 fps=0.8 q=36.0 size=       1KiB time=00:00:02.04 bitrate=   2.2kbits/s speed=0.0343x elapsed=0:00:59.49    \nframe=   51 fps=0.8 q=34.0 size=       1KiB time=00:00:02.08 bitrate=   2.2kbits/s speed=0.0347x elapsed=0:01:00.12    \nframe=   51 fps=0.8 q=34.0 size=       1KiB time=00:00:02.08 bitrate=   2.2kbits/s speed=0.0343x elapsed=0:01:00.76    \nframe=   53 fps=0.9 q=32.0 size=       1KiB time=00:00:02.12 bitrate=   2.1kbits/s speed=0.0346x elapsed=0:01:01.36    \nframe=   53 fps=0.9 q=32.0 size=       1KiB time=00:00:02.16 bitrate=   2.1kbits/s speed=0.035x elapsed=0:01:01.90    \nframe=   55 fps=0.9 q=35.0 size=       1KiB time=00:00:02.25 bitrate=   2.0kbits/s speed=0.036x elapsed=0:01:02.46    \nframe=   55 fps=0.9 q=35.0 size=       1KiB time=00:00:02.25 bitrate=   2.0kbits/s speed=0.0357x elapsed=0:01:03.02    \nframe=   56 fps=0.9 q=36.0 size=       1KiB time=00:00:02.29 bitrate=   2.0kbits/s speed=0.0361x elapsed=0:01:03.56    \nframe=   56 fps=0.9 q=36.0 size=       1KiB time=00:00:02.29 bitrate=   2.0kbits/s speed=0.0357x elapsed=0:01:04.12    \nframe=   56 fps=0.9 q=36.0 size=       1KiB time=00:00:02.29 bitrate=   2.0kbits/s speed=0.0354x elapsed=0:01:04.66    \nframe=   58 fps=0.9 q=37.0 size=       1KiB time=00:00:02.33 bitrate=   1.9kbits/s speed=0.0358x elapsed=0:01:05.26    \nframe=   59 fps=0.9 q=36.0 size=       1KiB time=00:00:02.37 bitrate=   1.9kbits/s speed=0.0361x elapsed=0:01:05.83    \nframe=   60 fps=0.9 q=37.0 size=       1KiB time=00:00:02.45 bitrate=   1.8kbits/s speed=0.037x elapsed=0:01:06.38    \nframe=   60 fps=0.9 q=37.0 size=       1KiB time=00:00:02.45 bitrate=   1.8kbits/s speed=0.0367x elapsed=0:01:06.97    \nframe=   61 fps=0.9 q=33.0 size=       1KiB time=00:00:02.50 bitrate=   1.8kbits/s speed=0.037x elapsed=0:01:07.58    \nframe=   63 fps=0.9 q=34.0 size=       1KiB time=00:00:02.58 bitrate=   1.7kbits/s speed=0.0379x elapsed=0:01:08.13    \nframe=   64 fps=0.9 q=36.0 size=       1KiB time=00:00:02.62 bitrate=   1.7kbits/s speed=0.0382x elapsed=0:01:08.70    \nframe=   64 fps=0.9 q=36.0 size=       1KiB time=00:00:02.62 bitrate=   1.7kbits/s speed=0.0379x elapsed=0:01:09.25    \nframe=   66 fps=0.9 q=37.0 size=       1KiB time=00:00:02.70 bitrate=   1.7kbits/s speed=0.0388x elapsed=0:01:09.78    \nframe=   67 fps=1.0 q=36.0 size=       1KiB time=00:00:02.75 bitrate=   1.6kbits/s speed=0.0391x elapsed=0:01:10.30    \nframe=   67 fps=0.9 q=36.0 size=       1KiB time=00:00:02.75 bitrate=   1.6kbits/s speed=0.0388x elapsed=0:01:10.85    \nframe=   69 fps=1.0 q=34.0 size=       1KiB time=00:00:02.83 bitrate=   1.6kbits/s speed=0.0397x elapsed=0:01:11.38    \nframe=   69 fps=1.0 q=34.0 size=       1KiB time=00:00:02.83 bitrate=   1.6kbits/s speed=0.0394x elapsed=0:01:11.90    \nframe=   71 fps=1.0 q=36.0 size=       1KiB time=00:00:02.91 bitrate=   1.5kbits/s speed=0.0403x elapsed=0:01:12.42    \nframe=   72 fps=1.0 q=37.0 size=       1KiB time=00:00:02.95 bitrate=   1.5kbits/s speed=0.0406x elapsed=0:01:12.95    \nframe=   72 fps=1.0 q=37.0 size=       1KiB time=00:00:02.95 bitrate=   1.5kbits/s speed=0.0402x elapsed=0:01:13.51    \nframe=   73 fps=1.0 q=30.0 size=       1KiB time=00:00:03.00 bitrate=   1.5kbits/s speed=0.0405x elapsed=0:01:14.03    \nframe=   74 fps=1.0 q=37.0 size=       1KiB time=00:00:03.04 bitrate=   1.5kbits/s speed=0.0408x elapsed=0:01:14.55    \nframe=   76 fps=1.0 q=37.0 size=       1KiB time=00:00:03.12 bitrate=   1.4kbits/s speed=0.0416x elapsed=0:01:15.13    \nframe=   77 fps=1.0 q=34.0 size=       1KiB time=00:00:03.16 bitrate=   1.4kbits/s speed=0.0418x elapsed=0:01:15.71    \nframe=   78 fps=1.0 q=37.0 size=       1KiB time=00:00:03.20 bitrate=   1.4kbits/s speed=0.0421x elapsed=0:01:16.27    \nframe=   79 fps=1.0 q=36.0 size=       1KiB time=00:00:03.25 bitrate=   1.4kbits/s speed=0.0423x elapsed=0:01:16.83    \nframe=   80 fps=1.0 q=37.0 size=       1KiB time=00:00:03.29 bitrate=   1.4kbits/s speed=0.0425x elapsed=0:01:17.38    \nframe=   81 fps=1.0 q=18.0 size=       1KiB time=00:00:03.33 bitrate=   1.3kbits/s speed=0.0428x elapsed=0:01:17.96    \nframe=   82 fps=1.0 q=36.0 size=       1KiB time=00:00:03.37 bitrate=   1.3kbits/s speed=0.043x elapsed=0:01:18.51    \nframe=   83 fps=1.0 q=35.0 size=       1KiB time=00:00:03.41 bitrate=   1.3kbits/s speed=0.0432x elapsed=0:01:19.09    \nframe=   84 fps=1.1 q=36.0 size=       1KiB time=00:00:03.45 bitrate=   1.3kbits/s speed=0.0434x elapsed=0:01:19.62    \nframe=   86 fps=1.1 q=36.0 size=       1KiB time=00:00:03.54 bitrate=   1.3kbits/s speed=0.0442x elapsed=0:01:20.13    \nframe=   87 fps=1.1 q=35.0 size=       1KiB time=00:00:03.58 bitrate=   1.3kbits/s speed=0.0444x elapsed=0:01:20.65    \nframe=   87 fps=1.1 q=35.0 size=       1KiB time=00:00:03.58 bitrate=   1.3kbits/s speed=0.0441x elapsed=0:01:21.18    \nframe=   88 fps=1.1 q=28.0 size=       1KiB time=00:00:03.62 bitrate=   1.2kbits/s speed=0.0443x elapsed=0:01:21.75    \nframe=   88 fps=1.1 q=28.0 size=       1KiB time=00:00:03.62 bitrate=   1.2kbits/s speed=0.0441x elapsed=0:01:22.27    \nframe=   89 fps=1.1 q=29.0 size=       1KiB time=00:00:03.66 bitrate=   1.2kbits/s speed=0.0443x elapsed=0:01:22.82    \nframe=   90 fps=1.1 q=36.0 size=       1KiB time=00:00:03.70 bitrate=   1.2kbits/s speed=0.0445x elapsed=0:01:23.39    \nframe=   91 fps=1.1 q=34.0 size=       1KiB time=00:00:03.75 bitrate=   1.2kbits/s speed=0.0447x elapsed=0:01:23.97    \nframe=   91 fps=1.1 q=34.0 size=       1KiB time=00:00:03.75 bitrate=   1.2kbits/s speed=0.0443x elapsed=0:01:24.58    \nframe=   93 fps=1.1 q=30.0 size=       1KiB time=00:00:03.83 bitrate=   1.2kbits/s speed=0.045x elapsed=0:01:25.12    \nframe=   95 fps=1.1 q=33.0 size=       1KiB time=00:00:03.91 bitrate=   1.1kbits/s speed=0.0457x elapsed=0:01:25.65    \nframe=   96 fps=1.1 q=35.0 size=       1KiB time=00:00:03.95 bitrate=   1.1kbits/s speed=0.0459x elapsed=0:01:26.18    \nframe=   97 fps=1.1 q=18.0 size=       1KiB time=00:00:04.00 bitrate=   1.1kbits/s speed=0.0461x elapsed=0:01:26.71    \nframe=   99 fps=1.1 q=35.0 size=       1KiB time=00:00:04.08 bitrate=   1.1kbits/s speed=0.0468x elapsed=0:01:27.23    \nframe=  100 fps=1.1 q=36.0 size=       1KiB time=00:00:04.12 bitrate=   1.1kbits/s speed=0.047x elapsed=0:01:27.77    \nframe=  101 fps=1.1 q=33.0 size=       1KiB time=00:00:04.16 bitrate=   1.1kbits/s speed=0.0472x elapsed=0:01:28.29    \nframe=  102 fps=1.1 q=36.0 size=       1KiB time=00:00:04.20 bitrate=   1.1kbits/s speed=0.0474x elapsed=0:01:28.81    \nframe=  102 fps=1.1 q=36.0 size=       1KiB time=00:00:04.20 bitrate=   1.1kbits/s speed=0.0471x elapsed=0:01:29.36    \nframe=  102 fps=1.1 q=36.0 size=       1KiB time=00:00:04.20 bitrate=   1.1kbits/s speed=0.0468x elapsed=0:01:29.90    \nframe=  103 fps=1.1 q=35.0 size=       1KiB time=00:00:04.25 bitrate=   1.1kbits/s speed=0.047x elapsed=0:01:30.42    \nframe=  104 fps=1.1 q=36.0 size=       1KiB time=00:00:04.29 bitrate=   1.0kbits/s speed=0.0471x elapsed=0:01:31.04    \nframe=  105 fps=1.1 q=29.0 size=       1KiB time=00:00:04.33 bitrate=   1.0kbits/s speed=0.0473x elapsed=0:01:31.60    \nframe=  106 fps=1.2 q=36.0 size=       1KiB time=00:00:04.37 bitrate=   1.0kbits/s speed=0.0475x elapsed=0:01:32.13    \nframe=  107 fps=1.2 q=34.0 size=       1KiB time=00:00:04.41 bitrate=   1.0kbits/s speed=0.0476x elapsed=0:01:32.69    \nframe=  108 fps=1.2 q=33.0 size=       1KiB time=00:00:04.45 bitrate=   1.0kbits/s speed=0.0478x elapsed=0:01:33.27    \nframe=  108 fps=1.2 q=33.0 size=       1KiB time=00:00:04.45 bitrate=   1.0kbits/s speed=0.0475x elapsed=0:01:33.81    \nframe=  111 fps=1.2 q=33.0 size=       1KiB time=00:00:04.58 bitrate=   1.0kbits/s speed=0.0486x elapsed=0:01:34.32    \nframe=  112 fps=1.2 q=35.0 size=       1KiB time=00:00:04.62 bitrate=   1.0kbits/s speed=0.0488x elapsed=0:01:34.85    \nframe=  113 fps=1.2 q=19.0 size=       1KiB time=00:00:04.66 bitrate=   1.0kbits/s speed=0.0489x elapsed=0:01:35.36    \nframe=  115 fps=1.2 q=35.0 size=       1KiB time=00:00:04.75 bitrate=   0.9kbits/s speed=0.0495x elapsed=0:01:35.92    \nframe=  116 fps=1.2 q=36.0 size=       1KiB time=00:00:04.79 bitrate=   0.9kbits/s speed=0.0497x elapsed=0:01:36.45    \nframe=  117 fps=1.2 q=33.0 size=       1KiB time=00:00:04.83 bitrate=   0.9kbits/s speed=0.0498x elapsed=0:01:36.97    \nframe=  118 fps=1.2 q=36.0 size=       1KiB time=00:00:04.87 bitrate=   0.9kbits/s speed=0.05x elapsed=0:01:37.51    \nframe=  118 fps=1.2 q=36.0 size=       1KiB time=00:00:04.87 bitrate=   0.9kbits/s speed=0.0497x elapsed=0:01:38.03    \nframe=  119 fps=1.2 q=35.0 size=       1KiB time=00:00:04.91 bitrate=   0.9kbits/s speed=0.0499x elapsed=0:01:38.59    \nframe=  120 fps=1.2 q=36.0 size=       1KiB time=00:00:04.95 bitrate=   0.9kbits/s speed=0.05x elapsed=0:01:39.12    \nframe=  122 fps=1.2 q=36.0 size=       1KiB time=00:00:05.00 bitrate=   0.9kbits/s speed=0.0502x elapsed=0:01:39.64    \nframe=  123 fps=1.2 q=34.0 size=    1792KiB time=00:00:05.08 bitrate=2887.9kbits/s speed=0.0507x elapsed=0:01:40.26    \nframe=  123 fps=1.2 q=34.0 size=    1792KiB time=00:00:05.08 bitrate=2887.9kbits/s speed=0.0504x elapsed=0:01:40.80    \nframe=  124 fps=1.2 q=33.0 size=    1792KiB time=00:00:05.12 bitrate=2864.4kbits/s speed=0.0506x elapsed=0:01:41.36    \nframe=  124 fps=1.2 q=33.0 size=    1792KiB time=00:00:05.12 bitrate=2864.4kbits/s speed=0.0503x elapsed=0:01:41.93    \nframe=  125 fps=1.2 q=30.0 size=    1792KiB time=00:00:05.16 bitrate=2841.3kbits/s speed=0.0504x elapsed=0:01:42.51    \nframe=  126 fps=1.2 q=36.0 size=    1792KiB time=00:00:05.20 bitrate=2818.6kbits/s speed=0.0505x elapsed=0:01:43.11    \nframe=  127 fps=1.2 q=33.0 size=    1792KiB time=00:00:05.25 bitrate=2796.2kbits/s speed=0.0506x elapsed=0:01:43.66    \nframe=  129 fps=1.2 q=20.0 size=    1792KiB time=00:00:05.33 bitrate=2752.5kbits/s speed=0.0512x elapsed=0:01:44.25    \nframe=  131 fps=1.3 q=36.0 size=    1792KiB time=00:00:05.37 bitrate=2731.2kbits/s speed=0.0513x elapsed=0:01:44.79    \nframe=  131 fps=1.2 q=36.0 size=    1792KiB time=00:00:05.41 bitrate=2710.2kbits/s speed=0.0514x elapsed=0:01:45.34    \nframe=  133 fps=1.3 q=34.0 size=    1792KiB time=00:00:05.45 bitrate=2689.5kbits/s speed=0.0516x elapsed=0:01:45.86    \nframe=  134 fps=1.3 q=35.0 size=    1792KiB time=00:00:05.54 bitrate=2649.0kbits/s speed=0.052x elapsed=0:01:46.66    \nframe=  136 fps=1.3 q=35.0 size=    1792KiB time=00:00:05.62 bitrate=2609.8kbits/s speed=0.0524x elapsed=0:01:47.32    \nframe=  139 fps=1.3 q=35.0 size=    1792KiB time=00:00:05.66 bitrate=2590.6kbits/s speed=0.0524x elapsed=0:01:48.08    \nframe=  140 fps=1.3 q=37.0 size=    1792KiB time=00:00:05.79 bitrate=2534.7kbits/s speed=0.0532x elapsed=0:01:48.94    \nframe=  141 fps=1.3 q=32.0 size=    1792KiB time=00:00:05.83 bitrate=2516.6kbits/s speed=0.0531x elapsed=0:01:49.76    \nframe=  145 fps=1.3 q=20.0 size=    1792KiB time=00:00:06.00 bitrate=2446.7kbits/s speed=0.0543x elapsed=0:01:50.41    \nframe=  149 fps=1.3 q=34.0 size=    1792KiB time=00:00:06.16 bitrate=2380.6kbits/s speed=0.0555x elapsed=0:01:51.02    \nframe=  149 fps=1.3 q=34.0 size=    1792KiB time=00:00:06.16 bitrate=2380.6kbits/s speed=0.0553x elapsed=0:01:51.56    \nframe=  153 fps=1.4 q=29.0 size=    1792KiB time=00:00:06.33 bitrate=2317.9kbits/s speed=0.0565x elapsed=0:01:52.18    \nframe=  153 fps=1.4 q=29.0 size=    1792KiB time=00:00:06.33 bitrate=2317.9kbits/s speed=0.0561x elapsed=0:01:52.88    \nframe=  155 fps=1.4 q=36.0 size=    1792KiB time=00:00:06.41 bitrate=2287.8kbits/s speed=0.0565x elapsed=0:01:53.60    \nframe=  157 fps=1.4 q=33.0 size=    1792KiB time=00:00:06.50 bitrate=2258.5kbits/s speed=0.0569x elapsed=0:01:54.19    \nframe=  159 fps=1.4 q=36.0 size=    1792KiB time=00:00:06.58 bitrate=2229.9kbits/s speed=0.0573x elapsed=0:01:54.88    \nframe=  170 fps=1.5 q=28.0 size=    2304KiB time=00:00:07.04 bitrate=2680.4kbits/s speed=0.0609x elapsed=0:01:55.59    \nframe=  174 fps=1.5 q=33.0 size=    2304KiB time=00:00:07.20 bitrate=2618.4kbits/s speed=0.062x elapsed=0:01:56.22    \nframe=  176 fps=1.5 q=33.0 size=    2304KiB time=00:00:07.29 bitrate=2588.5kbits/s speed=0.0624x elapsed=0:01:56.85    \nframe=  178 fps=1.5 q=18.0 size=    2304KiB time=00:00:07.37 bitrate=2559.2kbits/s speed=0.0628x elapsed=0:01:57.47    \nframe=  182 fps=1.5 q=33.0 size=    2304KiB time=00:00:07.54 bitrate=2502.7kbits/s speed=0.0639x elapsed=0:01:58.11    \nframe=  184 fps=1.5 q=36.0 size=    2304KiB time=00:00:07.62 bitrate=2475.3kbits/s speed=0.0642x elapsed=0:01:58.85    \nframe=  186 fps=1.6 q=28.0 size=    2304KiB time=00:00:07.70 bitrate=2448.6kbits/s speed=0.0645x elapsed=0:01:59.54    \nframe=  186 fps=1.5 q=28.0 size=    2304KiB time=00:00:07.70 bitrate=2448.6kbits/s speed=0.0641x elapsed=0:02:00.18    \nframe=  190 fps=1.6 q=31.0 size=    2304KiB time=00:00:07.87 bitrate=2396.7kbits/s speed=0.0652x elapsed=0:02:00.79    \nframe=  192 fps=1.6 q=32.0 size=    2304KiB time=00:00:07.87 bitrate=2396.7kbits/s speed=0.0649x elapsed=0:02:01.34    \nframe=  194 fps=1.6 q=17.0 size=    2304KiB time=00:00:08.04 bitrate=2347.1kbits/s speed=0.0659x elapsed=0:02:02.04    \nframe=  198 fps=1.6 q=32.0 size=    2304KiB time=00:00:08.12 bitrate=2323.0kbits/s speed=0.0662x elapsed=0:02:02.69    \nframe=  198 fps=1.6 q=32.0 size=    2304KiB time=00:00:08.20 bitrate=2299.4kbits/s speed=0.0666x elapsed=0:02:03.30    \nframe=  200 fps=1.6 q=34.0 size=    2304KiB time=00:00:08.29 bitrate=2276.3kbits/s speed=0.0669x elapsed=0:02:03.88    \nframe=  202 fps=1.6 q=28.0 size=    2304KiB time=00:00:08.37 bitrate=2253.7kbits/s speed=0.0672x elapsed=0:02:04.58    \nframe=  202 fps=1.6 q=28.0 size=    2304KiB time=00:00:08.37 bitrate=2253.7kbits/s speed=0.0669x elapsed=0:02:05.21    \nframe=  202 fps=1.6 q=28.0 size=    2304KiB time=00:00:08.37 bitrate=2253.7kbits/s speed=0.0665x elapsed=0:02:05.95    \nframe=  206 fps=1.6 q=27.0 size=    2304KiB time=00:00:08.45 bitrate=2231.5kbits/s speed=0.0668x elapsed=0:02:06.62    \nframe=  206 fps=1.6 q=27.0 size=    2304KiB time=00:00:08.54 bitrate=2209.7kbits/s speed=0.0671x elapsed=0:02:07.28    \nframe=  210 fps=1.6 q=17.0 size=    2304KiB time=00:00:08.62 bitrate=2188.3kbits/s speed=0.0674x elapsed=0:02:07.87    \nframe=  212 fps=1.7 q=35.0 size=    2304KiB time=00:00:08.70 bitrate=2167.4kbits/s speed=0.0678x elapsed=0:02:08.40    \nframe=  214 fps=1.7 q=34.0 size=    2304KiB time=00:00:08.87 bitrate=2126.7kbits/s speed=0.0688x elapsed=0:02:09.03    \nframe=  216 fps=1.7 q=35.0 size=    2304KiB time=00:00:08.95 bitrate=2106.9kbits/s speed=0.0691x elapsed=0:02:09.56    \nframe=  218 fps=1.7 q=25.0 size=    2304KiB time=00:00:09.04 bitrate=2087.5kbits/s speed=0.0694x elapsed=0:02:10.19    \nframe=  218 fps=1.7 q=25.0 size=    2304KiB time=00:00:09.04 bitrate=2087.5kbits/s speed=0.0691x elapsed=0:02:10.82    \nframe=  222 fps=1.7 q=34.0 size=    2304KiB time=00:00:09.20 bitrate=2049.7kbits/s speed=0.0701x elapsed=0:02:11.39    \nframe=  232 fps=1.8 q=34.0 size=    2304KiB time=00:00:09.62 bitrate=1961.0kbits/s speed=0.0729x elapsed=0:02:11.95    \n[out#0/matroska @ 00000224d4318ec0] video:3617KiB audio:0KiB subtitle:0KiB other streams:0KiB global headers:0KiB muxing overhead: 0.047894%\nframe=  240 fps=1.8 q=30.0 Lsize=    3619KiB time=00:00:09.95 bitrate=2977.0kbits/s speed=0.0754x elapsed=0:02:12.08    \n",
  "seconds": 133.6192090511322,
  "probe_out": {}
}